<svg width="2894" height="895" viewBox="0 0 2894 895" fill="none" xmlns="http://www.w3.org/2000/svg">
<g opacity="0.6">
<path d="M41.1169 300.965C135.633 365.613 236.488 421.14 342.27 465.057C395.24 486.767 449.302 505.94 504.383 521.372C559.465 537.003 615.479 549.137 672.091 557.703L693.325 560.627L698.64 561.358C700.416 561.604 702.183 561.862 703.967 562.044L714.626 563.252L725.293 564.456C728.85 564.837 732.388 565.282 735.961 565.587L757.316 567.466L762.662 567.938C764.442 568.145 766.229 568.183 768.012 568.306L778.728 568.978L789.436 569.656L794.79 569.992L800.153 570.198L821.634 571.005C823.418 571.063 825.205 571.16 826.994 571.178L832.361 571.241L843.093 571.372C857.395 571.729 871.706 571.283 886.014 571.137L888.699 571.096L891.379 570.99L896.739 570.77L907.466 570.338L918.269 569.862C920.06 569.809 921.847 569.625 923.628 569.544L928.978 569.186L950.399 567.755C957.525 567.133 964.642 566.424 971.773 565.763L982.456 564.75L993.128 563.494L1003.8 562.224C1007.36 561.801 1010.91 561.404 1014.46 560.881L1035.72 557.927C1037.49 557.695 1039.27 557.424 1041.04 557.14L1046.37 556.302L1057.03 554.638C1060.57 554.069 1064.11 553.553 1067.65 552.937L1078.25 551.09L1088.85 549.243C1090.61 548.925 1092.38 548.634 1094.14 548.302L1099.43 547.302L1120.52 543.275L1141.62 538.966C1148.66 537.568 1155.69 535.987 1162.69 534.472C1169.68 532.958 1176.72 531.448 1183.72 529.816C1211.75 523.529 1239.68 516.705 1267.58 509.676C1295.49 502.647 1323.33 495.389 1351.17 488.097C1379 480.805 1406.88 473.452 1434.77 466.291C1462.67 459.13 1490.65 452.078 1518.73 445.476C1546.82 438.874 1574.96 432.501 1603.27 426.881C1606.81 426.173 1610.34 425.407 1613.88 424.753L1624.53 422.722C1631.62 421.395 1638.7 419.982 1645.82 418.796L1667.17 415.1L1688.57 411.756L1693.9 410.918L1699.27 410.169L1710 408.691L1720.73 407.219C1724.31 406.739 1727.91 406.36 1731.49 405.927L1742.25 404.661L1747.63 404.031L1750.33 403.691L1753.02 403.429L1774.6 401.362C1778.19 400.982 1781.8 400.761 1785.4 400.487L1796.21 399.698L1807.02 398.923L1817.85 398.398L1828.67 397.866L1834.09 397.6C1835.89 397.522 1837.7 397.504 1839.51 397.453L1861.18 396.948C1919.13 396.304 1976.78 400.919 2034.09 407.064C2091.39 413.208 2148.49 420.834 2205.78 426.015C2212.94 426.647 2220.1 427.336 2227.26 427.863L2238.01 428.684L2243.39 429.093L2248.76 429.425C2263.09 430.387 2277.44 430.907 2291.79 431.212L2302.56 431.359L2313.33 431.351L2318.71 431.324L2324.09 431.218C2327.68 431.132 2331.29 431.108 2334.86 430.98C2349.21 430.536 2363.54 429.729 2377.85 428.561L2388.56 427.565C2390.35 427.394 2392.14 427.242 2393.93 427.051L2399.27 426.444C2402.83 426.015 2406.4 425.665 2409.96 425.183L2420.63 423.743L2423.29 423.398L2425.95 422.982L2431.28 422.144C2434.82 421.588 2438.37 421.052 2441.9 420.39L2452.49 418.483L2463.04 416.343C2477.08 413.398 2491.06 410.079 2504.84 406.104L2510.03 404.653C2511.75 404.161 2513.46 403.607 2515.17 403.087C2518.6 402.02 2522.04 400.988 2525.45 399.901C2532.26 397.586 2539.06 395.38 2545.78 392.82C2552.55 390.422 2559.18 387.674 2565.84 385.015C2569.15 383.628 2572.43 382.164 2575.72 380.741C2577.36 380.024 2579.01 379.326 2580.65 378.587L2585.49 376.292C2598.54 370.301 2611.22 363.546 2623.65 356.37L2632.91 350.906L2641.99 345.127L2644.27 343.684C2645.03 343.203 2645.78 342.715 2646.51 342.198L2650.96 339.163L2655.41 336.122L2657.62 334.6C2658.34 334.082 2659.05 333.544 2659.8 333.016L2668.47 326.639C2669.94 325.599 2671.34 324.467 2672.74 323.354L2676.97 320.018L2681.2 316.684C2682.64 315.575 2683.94 314.386 2685.32 313.238L2693.54 306.272L2695.27 308.227L2687.05 315.285C2685.67 316.433 2684.33 317.664 2682.92 318.788L2678.69 322.175L2674.46 325.563C2673.02 326.703 2671.65 327.852 2670.19 328.893L2661.49 335.372C2660.78 335.904 2660.06 336.455 2659.35 336.986L2657.12 338.527L2652.67 341.62L2648.21 344.706C2647.47 345.226 2646.72 345.728 2645.96 346.21L2643.68 347.679L2634.57 353.553L2625.28 359.132C2612.82 366.441 2600.09 373.327 2587 379.444L2582.11 381.787C2580.47 382.538 2578.81 383.254 2577.16 383.991C2573.85 385.444 2570.56 386.939 2567.24 388.358C2560.54 391.078 2553.89 393.889 2547.1 396.35C2540.36 398.98 2533.5 401.237 2526.67 403.608C2523.24 404.727 2519.79 405.797 2516.34 406.887C2514.62 407.425 2512.9 407.991 2511.17 408.503L2505.96 409.996C2492.1 414.094 2478.05 417.515 2463.94 420.582L2453.33 422.808L2442.68 424.793C2439.14 425.487 2435.57 426.052 2432 426.632L2426.67 427.509L2424.01 427.951L2421.35 428.334L2410.62 429.859C2407.04 430.365 2403.45 430.745 2399.86 431.191L2394.49 431.84C2392.69 432.05 2390.89 432.214 2389.1 432.397L2378.32 433.471C2363.93 434.713 2349.52 435.619 2335.08 436.188C2331.47 436.33 2327.87 436.388 2324.25 436.497L2318.84 436.639L2313.42 436.695L2302.59 436.781L2291.76 436.698C2277.33 436.488 2262.89 436.063 2248.47 435.188L2243.07 434.886L2237.67 434.512L2226.88 433.759C2219.68 433.3 2212.5 432.654 2205.31 432.065C2147.83 427.248 2090.65 420.018 2033.41 414.241C1976.17 408.464 1918.79 404.279 1861.43 405.332L1839.86 405.908C1838.07 405.968 1836.28 405.995 1834.49 406.087L1829.12 406.384L1818.37 406.984L1807.63 407.579L1796.91 408.423L1786.18 409.273C1782.61 409.564 1779.03 409.808 1775.46 410.211L1754.05 412.408L1751.37 412.678L1748.72 413.023L1743.37 413.71L1732.69 415.031C1729.14 415.486 1725.57 415.889 1722.02 416.404L1711.38 417.945L1700.74 419.487L1695.42 420.261L1690.09 421.125L1668.83 424.591L1647.63 428.409C1640.56 429.633 1633.53 431.085 1626.47 432.455L1615.9 434.528C1612.37 435.203 1608.87 435.992 1605.35 436.715C1577.22 442.493 1549.21 449.019 1521.27 455.789C1493.33 462.558 1465.47 469.769 1437.65 477.108C1409.83 484.448 1382.03 491.967 1354.22 499.451C1326.4 506.935 1298.57 514.404 1270.64 521.607C1242.72 528.81 1214.75 535.864 1186.62 542.369C1179.6 544.052 1172.56 545.619 1165.51 547.193C1158.46 548.767 1151.41 550.392 1144.36 551.848L1123.16 556.321L1101.9 560.512L1096.55 561.55C1094.77 561.894 1092.99 562.203 1091.2 562.531L1080.52 564.46L1069.83 566.389C1066.27 567.034 1062.7 567.579 1059.16 568.182L1048.5 569.936L1043.16 570.82C1041.38 571.116 1039.59 571.399 1037.8 571.648L1016.33 574.774C1012.76 575.32 1009.16 575.752 1005.57 576.197L994.798 577.559L984.022 578.921L973.218 580.018C966.009 580.736 958.807 581.5 951.595 582.178L929.919 583.782L924.457 584.088C922.652 584.211 920.847 584.381 919.035 584.444L908.182 584.953L897.329 585.469L891.899 585.726L889.191 585.849L886.47 585.912C871.983 586.187 857.503 586.686 843.018 586.445L832.152 586.39L826.716 586.359C824.906 586.351 823.092 586.264 821.287 586.217L799.562 585.545L794.129 585.376L788.707 585.065L777.86 584.456L767.013 583.847C765.203 583.728 763.392 583.674 761.587 583.509L756.173 583.069L734.535 581.307C730.923 581.057 727.328 580.599 723.723 580.231L712.919 579.084L702.115 577.937C700.316 577.727 698.516 577.518 696.72 577.276L691.337 576.57L669.785 573.746C612.414 565.453 555.624 553.541 499.756 538.081C443.839 522.82 389.016 503.773 335.264 482.156C227.907 438.454 125.508 382.944 29.4447 318.161L41.1169 300.965Z" fill="#78FEFF"/>
</g>
<g opacity="0.3">
<path d="M59.8602 420.686C111.325 450.61 164.874 476.789 220.094 499.022C275.315 521.216 331.983 539.621 389.704 554.11C447.426 568.575 505.965 579.56 565.004 587.006C624.031 594.536 683.461 598.782 742.948 600.398C802.436 602.014 862.017 600.972 921.472 597.879C936.332 597.107 951.187 596.202 966.034 595.166C973.453 594.676 980.861 594.047 988.271 593.464C995.681 592.881 1003.08 592.186 1010.48 591.47C1017.87 590.754 1025.27 589.974 1032.67 589.2C1040.07 588.426 1047.45 587.552 1054.83 586.632C1069.6 584.863 1084.34 582.914 1099.06 580.786C1157.98 572.338 1216.57 561.522 1274.97 549.624C1333.37 537.727 1391.56 524.744 1449.87 512.058C1508.19 499.372 1566.63 486.983 1625.45 476.24C1684.28 465.497 1743.47 456.48 1803.05 450.405C1817.95 448.869 1832.86 447.531 1847.8 446.418L1853.4 445.984L1859.01 445.604C1862.74 445.384 1866.48 445.08 1870.21 444.86L1881.4 444.201L1892.59 443.606C1922.44 442.081 1952.32 440.98 1982.21 440.305C2041.98 438.936 2101.77 439.216 2161.58 441.144C2221.39 443.072 2281.09 446.823 2340.67 452.398C2400.24 458.028 2459.66 465.604 2518.73 475.585C2533.47 478.075 2548.23 480.762 2562.95 483.556L2573.97 485.71L2579.49 486.791L2584.99 487.916L2596 490.167L2607 492.502C2621.67 495.663 2636.28 498.948 2650.85 502.484C2658.14 504.203 2665.41 506.064 2672.68 507.873L2683.57 510.699L2689.02 512.118L2694.45 513.582C2723.43 521.367 2752.18 530.001 2780.71 539.482C2794.97 544.245 2809.14 549.246 2823.22 554.485C2837.31 559.724 2851.31 565.228 2865.22 570.997L2857.1 590.229C2843.49 584.444 2829.79 578.889 2815.99 573.565C2802.19 568.241 2788.3 563.193 2774.34 558.422C2760.33 553.643 2746.26 548.982 2732.1 544.63C2717.94 540.278 2703.73 536.091 2689.43 532.142C2632.28 516.325 2574.24 503.531 2515.72 493.281C2457.21 483.03 2398.25 475.116 2339.08 469.225C2279.91 463.334 2220.52 459.413 2161.06 457.172C2101.6 454.931 2042.07 454.402 1982.56 455.473C1952.81 456.026 1923.06 456.979 1893.32 458.334L1882.18 458.869L1871.06 459.472C1867.35 459.694 1863.65 459.917 1859.95 460.14L1854.39 460.494L1848.84 460.894C1834.03 461.923 1819.22 463.209 1804.44 464.647C1745.3 470.4 1686.42 479.107 1627.81 489.508C1569.19 499.909 1510.84 512.001 1452.51 524.404C1394.18 536.807 1335.86 549.559 1277.28 561.219C1218.7 572.88 1159.85 583.462 1100.59 591.675C1085.79 593.732 1070.97 595.624 1056.13 597.351C1048.7 598.239 1041.27 599.015 1033.83 599.83C1026.39 600.646 1018.95 601.369 1011.5 602.013C1004.05 602.657 996.603 603.32 989.149 603.943C981.695 604.567 974.234 605.092 966.734 605.553C951.803 606.549 936.902 607.352 921.986 608.055C862.283 610.87 802.462 611.616 742.662 609.708C682.862 607.801 623.21 603.215 563.886 595.428C504.557 587.693 445.746 576.399 387.772 561.606C329.791 546.79 272.886 528.042 217.451 505.493C162.042 482.905 108.328 456.361 56.7232 426.066L59.8602 420.686Z" fill="#78FEFF"/>
</g>
<g opacity="0.3">
<path d="M193.522 495.678C213.614 510.218 234.748 523.257 256.754 534.692C262.242 537.582 267.813 540.325 273.393 543.042C278.974 545.76 284.621 548.355 290.312 550.849C301.661 555.907 313.192 560.574 324.827 564.972C371.418 582.51 419.891 595.059 468.943 604.378C517.995 613.696 567.755 619.741 617.683 623.947C642.647 626.052 667.627 627.611 692.622 628.625C717.617 629.639 742.645 630.096 767.704 629.997C867.869 629.762 967.972 621.688 1067.57 609.735C1080.03 608.228 1092.47 606.674 1104.91 605.074L1142.24 600.274C1154.68 598.67 1167.11 597.002 1179.54 595.27L1216.8 589.749C1266.45 582.262 1316.04 574.365 1365.67 566.523C1415.3 558.68 1464.95 550.914 1514.72 543.781L1533.38 541.113L1552.06 538.578C1564.51 536.835 1576.98 535.232 1589.44 533.588C1595.67 532.757 1601.91 532.012 1608.15 531.227L1626.87 528.919L1645.6 526.743L1654.97 525.655L1664.35 524.681L1683.13 522.739L1701.92 521.002C1714.44 519.798 1727.01 518.919 1739.55 517.913C1742.69 517.624 1745.82 517.446 1748.95 517.242L1758.37 516.611L1767.78 515.98C1770.92 515.769 1774.05 515.559 1777.2 515.395C1789.75 514.711 1802.3 513.929 1814.86 513.409L1833.71 512.549L1852.55 511.865L1861.98 511.517L1871.4 511.253L1890.25 510.727C1915.38 510.167 1940.52 509.745 1965.65 509.636C1990.78 509.527 2015.92 509.563 2041.04 509.716C2066.17 509.868 2091.32 510.265 2116.42 510.735C2166.66 511.581 2216.94 513.035 2267.12 516.374C2317.3 519.712 2367.39 525.004 2416.99 533.536C2466.58 542.067 2515.62 553.974 2563.22 570.322L2562.3 573.034C2514.76 557.029 2465.81 545.438 2416.35 537.204C2366.89 528.97 2316.88 524.034 2266.81 520.963C2216.73 517.892 2166.53 516.768 2116.34 516.209C2091.23 515.902 2066.13 515.71 2041.02 515.634C2015.92 515.622 1990.81 515.674 1965.71 515.984C1940.62 516.293 1915.52 516.812 1890.44 517.514L1871.6 518.147L1862.2 518.465L1852.8 518.862L1833.99 519.662L1815.2 520.621C1802.67 521.216 1790.19 522.071 1777.64 522.827C1774.51 523.006 1771.38 523.23 1768.25 523.461L1758.87 524.142L1749.5 524.829C1746.36 525.047 1743.24 525.278 1740.11 525.549C1727.62 526.626 1715.12 527.578 1702.64 528.853L1683.93 530.671L1665.23 532.72C1615.37 538.218 1565.62 544.966 1515.95 552.195C1466.27 559.423 1416.67 567.301 1367.06 575.263C1317.46 583.225 1267.86 591.189 1218.18 598.821L1143.64 610.128L1125.02 612.859L1115.71 614.203L1106.36 615.449C1093.89 617.112 1081.42 618.713 1068.94 620.251C969.11 632.577 868.605 641.069 767.805 641.649C742.608 641.767 717.412 641.393 692.217 640.526C667.021 639.659 641.863 638.174 616.742 636.073C566.522 632.009 516.364 626.069 466.689 616.822C417.014 607.574 367.837 595.015 320.274 577.292C308.402 572.854 296.622 568.132 285.013 563.004C279.195 560.475 273.434 557.789 267.694 555.098C261.953 552.408 256.265 549.547 250.632 546.607C227.977 534.937 206.214 521.61 185.52 506.733L193.522 495.678Z" fill="#78FEFF"/>
</g>
</svg>
